<svg width="185" height="185" viewBox="0 0 185 185" fill="none" xmlns="http://www.w3.org/2000/svg">
<path d="M90.2805 149.877C122.182 149.877 148.044 124.299 148.044 92.7483C148.044 61.1972 122.182 35.62 90.2805 35.62C58.3786 35.62 32.517 61.1972 32.517 92.7483C32.517 124.299 58.3786 149.877 90.2805 149.877Z" fill="url(#paint0_linear_188_115)"/>
<path fill-rule="evenodd" clip-rule="evenodd" d="M140.118 129.165C140.645 128.98 141.199 128.733 141.626 128.376C142.133 127.952 142.34 127.406 142.478 126.832C142.656 126.093 142.727 125.307 142.943 124.567C143.023 124.292 143.176 124.188 143.242 124.142C143.409 124.026 143.577 123.995 143.736 124.007C143.924 124.02 144.182 124.09 144.352 124.402C144.376 124.446 144.407 124.514 144.428 124.607C144.444 124.676 144.454 124.889 144.47 124.977C144.511 125.193 144.545 125.41 144.577 125.628C144.684 126.353 144.746 126.969 145.083 127.635C145.541 128.539 145.999 129.092 146.621 129.337C147.223 129.574 147.942 129.529 148.86 129.344C148.948 129.323 149.034 129.305 149.12 129.29C149.525 129.22 149.912 129.483 149.992 129.882C150.071 130.281 149.814 130.67 149.413 130.757C149.329 130.776 149.246 130.793 149.165 130.809C147.923 131.113 146.486 132.198 145.65 133.148C145.393 133.441 145.016 134.259 144.631 134.782C144.348 135.167 144.029 135.421 143.761 135.511C143.582 135.571 143.43 135.562 143.306 135.532C143.124 135.487 142.973 135.39 142.858 135.235C142.795 135.151 142.736 135.037 142.709 134.893C142.695 134.823 142.694 134.646 142.694 134.566C142.616 134.299 142.52 134.039 142.45 133.77C142.283 133.128 141.956 132.722 141.568 132.185C141.204 131.682 140.814 131.367 140.242 131.115C140.168 131.097 139.567 130.952 139.355 130.868C139.045 130.746 138.898 130.541 138.844 130.43C138.753 130.243 138.744 130.079 138.762 129.943C138.789 129.742 138.88 129.569 139.042 129.43C139.143 129.344 139.293 129.26 139.494 129.219C139.649 129.187 140.061 129.168 140.118 129.165ZM143.641 128.119C143.669 128.181 143.699 128.242 143.73 128.304C144.401 129.629 145.15 130.368 146.062 130.727L146.092 130.738C145.482 131.186 144.931 131.686 144.509 132.166C144.335 132.363 144.105 132.774 143.857 133.194C143.631 132.469 143.262 131.956 142.798 131.314C142.444 130.824 142.072 130.456 141.616 130.155C141.97 129.976 142.308 129.765 142.602 129.519C143.092 129.109 143.416 128.635 143.641 128.119Z" fill="#1749B3"/>
<ellipse cx="24.7658" cy="81.6159" rx="2.73572" ry="2.70564" fill="#1749B3"/>
<path d="M44.8949 50.5659C44.5266 50.3306 44.0342 50.4359 43.7972 50.8042L43.7562 50.8745C43.5718 51.2339 43.6895 51.6796 44.0355 51.9009C46.1256 53.2349 47.487 55.0778 48.1801 57.4409C48.2946 57.8367 48.6914 58.0711 49.0873 57.9986L49.1664 57.98C49.585 57.8582 49.8321 57.4192 49.7074 56.9966H49.7084C48.9056 54.2593 47.3179 52.1132 44.8949 50.5659Z" fill="#011625" stroke="#011625" stroke-width="0.503333"/>
<path d="M83.561 49.2842C79.2668 47.3341 74.4181 48.8916 72.0347 52.8594C71.6834 52.5438 71.3135 52.2485 70.9282 51.9765C66.4856 48.8436 59.9972 49.8884 55.0669 54.4922C54.2709 55.2359 53.6511 56.3212 53.1724 57.6006C52.6927 58.8824 52.3486 60.376 52.1118 61.9531C51.6579 64.9747 51.5748 68.3264 51.5991 71.0332C51.0871 69.8396 50.514 68.6776 49.9048 67.5195C46.8014 61.6228 43.7487 55.3431 38.605 50.8017L38.604 50.8008C38.2755 50.5131 37.7753 50.5406 37.4839 50.8672H37.4829C37.1885 51.1957 37.2214 51.6984 37.5493 51.9883C42.508 56.3673 45.4358 62.4427 48.4946 68.2558C49.4518 70.0745 50.3096 71.8892 50.9722 73.8213H50.9731C51.1242 74.2587 51.2757 74.6876 51.4126 75.1201L51.5435 75.5537C51.5438 75.5559 51.545 75.5619 51.5454 75.5723C51.546 75.5881 51.5451 75.6086 51.5435 75.6357C51.5418 75.6637 51.5395 75.6925 51.5366 75.7275L51.5298 75.8369V75.8398C51.5253 76.0298 51.5328 76.2324 51.5747 76.3926V76.3945C51.6538 76.6876 51.8305 76.8918 52.0522 77.0078H52.0532C52.2156 77.0916 52.4172 77.1375 52.6587 77.0947H52.6616C52.8329 77.0624 53.1086 76.9662 53.2563 76.6172V76.6162C53.2738 76.5749 53.284 76.5264 53.2905 76.4902C53.2986 76.4452 53.3059 76.3893 53.312 76.3242C53.3242 76.1937 53.3314 76.0178 53.3257 75.8017C53.2774 74.1111 52.9329 68.4058 53.5376 63.2988C53.7315 61.659 54.0142 60.0888 54.438 58.7529C54.8631 57.4131 55.4224 56.3335 56.1548 55.6494C60.5499 51.5455 66.1983 50.586 70.0083 53.2715C70.49 53.611 70.9408 53.9909 71.356 54.4062C71.2845 54.7783 71.2391 55.2458 71.2456 55.7217C71.2529 56.2573 71.3221 56.8243 71.4966 57.2851C71.6568 57.7078 71.9075 58.0587 72.2437 58.2764L72.3931 58.3613C72.8251 58.5754 73.3661 58.5964 74.0005 58.2764H74.0015C74.5474 58.0003 74.744 57.4716 74.6938 56.9072C74.6496 56.3916 74.3747 55.8168 74.2261 55.5556L73.9673 55.126C73.7295 54.7521 73.4665 54.3957 73.1851 54.0556C75.0672 50.5048 79.2239 49.0584 82.8999 50.7275C83.2999 50.9085 83.7711 50.734 83.9556 50.3369V50.3349C84.1374 49.9365 83.962 49.4658 83.561 49.2842ZM72.9087 56.4639C72.9733 56.592 73.0447 56.7576 73.0845 56.918C73.0793 56.9115 73.0699 56.9058 73.063 56.8945C73.0389 56.8552 73.0151 56.8018 72.9858 56.7246C72.9553 56.6444 72.9305 56.5564 72.9087 56.4639Z" fill="#011625" stroke="#011625" stroke-width="0.503333"/>
<rect x="63.6215" y="65.2598" width="99.4368" height="35.4515" rx="12.08" fill="#011625"/>
<rect x="104.668" y="77.4644" width="33.531" height="4.64938" rx="2.32469" fill="#CCC6D9"/>
<rect x="72.2933" y="84.4384" width="66.0747" height="4.64938" rx="2.32469" fill="white"/>
<ellipse cx="150.34" cy="83.2761" rx="5.78121" ry="5.81173" fill="#E1DCEB"/>
<rect x="22.03" y="94.8996" width="99.4368" height="35.4515" rx="12.08" fill="#E1DCEB"/>
<rect x="46.8892" y="107.104" width="33.531" height="4.64938" rx="2.32469" fill="#FE0000"/>
<rect x="46.8892" y="114.078" width="66.0747" height="4.64938" rx="2.32469" fill="white"/>
<ellipse cx="36.4831" cy="112.916" rx="5.78121" ry="5.81173" fill="#FE0000"/>
<defs>
<linearGradient id="paint0_linear_188_115" x1="89.8352" y1="17.0176" x2="90.9926" y2="217.644" gradientUnits="userSpaceOnUse">
<stop stop-color="#E9E6E6"/>
<stop offset="0.276042" stop-color="#F7F7F7"/>
</linearGradient>
</defs>
</svg>
