<svg width="173" height="173" viewBox="0 0 173 173" fill="none" xmlns="http://www.w3.org/2000/svg">
<path fill-rule="evenodd" clip-rule="evenodd" d="M9.02015 123.685C9.63763 123.465 10.2874 123.172 10.7885 122.749C11.3836 122.246 11.6256 121.598 11.7882 120.917C11.9968 120.041 12.0802 119.108 12.3332 118.231C12.4269 117.905 12.6072 117.782 12.6846 117.727C12.8801 117.589 13.0778 117.552 13.2637 117.566C13.4841 117.582 13.7868 117.665 13.9859 118.035C14.0143 118.088 14.0512 118.168 14.076 118.279C14.0941 118.36 14.1058 118.613 14.125 118.717C14.1729 118.974 14.213 119.231 14.2506 119.489C14.3759 120.349 14.4479 121.079 14.8436 121.869C15.3805 122.942 15.9185 123.598 16.6481 123.888C17.3536 124.169 18.1972 124.117 19.2749 123.896C19.3775 123.871 19.4789 123.85 19.5794 123.833C20.0545 123.75 20.5088 124.062 20.6021 124.535C20.6954 125.008 20.3935 125.469 19.9225 125.573C19.8242 125.595 19.7274 125.615 19.6315 125.634C18.1751 125.995 16.4891 127.281 15.5093 128.408C15.2073 128.756 14.7652 129.727 14.3141 130.346C13.9813 130.803 13.6072 131.105 13.2932 131.211C13.0827 131.283 12.9053 131.272 12.7587 131.236C12.5458 131.183 12.3691 131.068 12.2335 130.884C12.1597 130.784 12.0912 130.649 12.0586 130.478C12.043 130.395 12.0412 130.185 12.0415 130.09C11.9496 129.774 11.8371 129.465 11.7552 129.146C11.5596 128.385 11.176 127.903 10.7204 127.266C10.2941 126.67 9.83638 126.296 9.16532 125.997C9.07802 125.976 8.3736 125.803 8.12483 125.704C7.76144 125.559 7.58826 125.316 7.52544 125.185C7.41863 124.963 7.40764 124.769 7.42893 124.607C7.46051 124.368 7.56768 124.164 7.75789 123.999C7.87571 123.896 8.05173 123.797 8.28736 123.748C8.46941 123.71 8.95237 123.688 9.02015 123.685ZM13.1526 122.444C13.1853 122.517 13.2201 122.59 13.257 122.664C14.0434 124.234 14.9227 125.111 15.9916 125.537L16.0275 125.551C15.3124 126.082 14.6651 126.675 14.1704 127.244C13.9667 127.478 13.697 127.964 13.4057 128.463C13.1409 127.603 12.708 126.995 12.1636 126.233C11.7477 125.653 11.3119 125.215 10.7764 124.859C11.192 124.646 11.5884 124.396 11.9337 124.104C12.5086 123.618 12.8886 123.056 13.1526 122.444Z" fill="#1749B3"/>
<circle cx="24.72" cy="18.9533" r="3.46" fill="#1749B3"/>
<circle cx="162.543" cy="91.0367" r="3.46" fill="#1749B3"/>
<path d="M81.81 146.973C118.117 146.973 147.55 117.541 147.55 81.2333C147.55 44.9261 118.117 15.4933 81.81 15.4933C45.5028 15.4933 16.07 44.9261 16.07 81.2333C16.07 117.541 45.5028 146.973 81.81 146.973Z" fill="url(#paint0_linear_188_109)"/>
<path fill-rule="evenodd" clip-rule="evenodd" d="M81.5216 41.4433C88.6875 41.4433 94.4966 35.6342 94.4966 28.4683C94.4966 21.3024 88.6875 15.4933 81.5216 15.4933C74.3557 15.4933 68.5466 21.3024 68.5466 28.4683C68.5466 35.6342 74.3557 41.4433 81.5216 41.4433ZM81.2333 35.6767C85.0551 35.6767 88.1533 32.5785 88.1533 28.7567C88.1533 24.9349 85.0551 21.8367 81.2333 21.8367C77.4115 21.8367 74.3133 24.9349 74.3133 28.7567C74.3133 32.5785 77.4115 35.6767 81.2333 35.6767Z" fill="#011625"/>
<path d="M81.2621 132.614C95.2913 132.614 106.664 121.241 106.664 107.212C106.664 93.1829 95.2913 81.81 81.2621 81.81C67.2329 81.81 55.86 93.1829 55.86 107.212C55.86 121.241 67.2329 132.614 81.2621 132.614Z" fill="#FE0000"/>
<path d="M121.466 88.3257V68.8372C121.466 58.2072 117.243 48.0126 109.726 40.496C102.21 32.9794 92.0151 28.7567 81.3851 28.7567C70.755 28.7567 60.5604 32.9794 53.0438 40.496C45.5273 48.0126 41.3045 58.2072 41.3045 68.8372V88.3257C41.305 92.8031 40.0384 97.1891 37.6511 100.977C35.2639 104.765 31.8535 107.8 27.8141 109.731C26.8857 110.173 26.102 110.87 25.5542 111.74C25.0064 112.61 24.7171 113.618 24.72 114.647V114.752C24.7193 115.124 24.7919 115.491 24.9335 115.835C25.0752 116.178 25.2831 116.49 25.5455 116.753C25.8079 117.016 26.1195 117.224 26.4626 117.367C26.8056 117.509 27.1734 117.582 27.5448 117.582H135.22C135.591 117.582 135.959 117.509 136.302 117.367C136.645 117.224 136.957 117.016 137.219 116.753C137.482 116.49 137.69 116.178 137.831 115.835C137.973 115.491 138.046 115.124 138.045 114.752V114.647C138.045 113.622 137.755 112.617 137.209 111.75C136.662 110.883 135.881 110.188 134.956 109.747C130.914 107.814 127.502 104.777 125.115 100.986C122.727 97.1952 121.462 92.8057 121.466 88.3257Z" fill="#E1DCEB"/>
<path fill-rule="evenodd" clip-rule="evenodd" d="M138.323 117.563H24.72V114.103H138.323V117.563Z" fill="#011625"/>
<path fill-rule="evenodd" clip-rule="evenodd" d="M50.1556 126.387C47.3931 128.886 44.6383 131.333 41.9498 133.911C41.3694 134.464 41.3475 135.374 41.8966 135.948C42.4475 136.528 43.3635 136.546 43.9384 135.995C46.6139 133.434 49.3447 131.007 52.0888 128.526C52.6801 127.988 52.7258 127.076 52.1969 126.489C51.6608 125.899 50.7468 125.85 50.1556 126.387Z" fill="#011625"/>
<path fill-rule="evenodd" clip-rule="evenodd" d="M112.56 126.388C115.307 128.888 118.047 131.336 120.719 133.914C121.296 134.466 121.314 135.376 120.762 135.949C120.209 136.528 119.294 136.545 118.722 135.994C116.063 133.432 113.347 131.004 110.618 128.523C110.031 127.985 109.989 127.074 110.521 126.488C111.059 125.899 111.972 125.851 112.56 126.388Z" fill="#011625"/>
<path fill-rule="evenodd" clip-rule="evenodd" d="M79.5911 142.531C79.5473 146.247 79.4715 149.924 79.536 153.64C79.5469 154.439 80.1998 155.071 80.9932 155.056C81.7918 155.044 82.4268 154.384 82.4134 153.59C82.3521 149.894 82.4263 146.249 82.4708 142.558C82.478 141.761 81.84 141.11 81.0511 141.101C80.2545 141.096 79.5982 141.733 79.5911 142.531Z" fill="#011625"/>
<defs>
<linearGradient id="paint0_linear_188_109" x1="81.3032" y1="-5.91323" x2="82.6499" y2="224.956" gradientUnits="userSpaceOnUse">
<stop stop-color="#F9F9F9"/>
<stop offset="1" stop-color="#EFEFEF"/>
</linearGradient>
</defs>
</svg>
