<svg width="145" height="145" viewBox="0 0 145 145" fill="none" xmlns="http://www.w3.org/2000/svg">
<g clip-path="url(#clip0_428_1524)">
<path d="M75.7309 134.553C107.944 134.553 134.057 108.439 134.057 76.2266C134.057 44.0137 107.944 17.9 75.7309 17.9C43.518 17.9 17.4043 44.0137 17.4043 76.2266C17.4043 108.439 43.518 134.553 75.7309 134.553Z" fill="url(#paint0_linear_428_1524)"/>
<path d="M40.5685 98.8125L65.0772 31.5127L116.761 86.1604L56.733 113.716C47.1172 118.131 36.9479 108.754 40.5685 98.8125Z" fill="#E1DCEB"/>
<path d="M65.7934 31.1129C66.1702 30.7593 66.7093 30.5671 67.4223 30.551C68.1374 30.5348 69.0104 30.697 70.0261 31.0363C72.0572 31.7148 74.6085 33.0833 77.5107 35.0381C83.3115 38.9455 90.4695 45.1636 97.6054 52.7667C104.741 60.3698 110.494 67.9071 114.026 73.9437C115.793 76.9638 116.997 79.5967 117.546 81.6667C117.82 82.7018 117.927 83.5834 117.865 84.296C117.804 85.0065 117.578 85.5324 117.201 85.8861C116.825 86.2397 116.285 86.4325 115.572 86.4486C114.857 86.4647 113.984 86.3026 112.968 85.9633C110.937 85.2848 108.386 83.9156 105.484 81.9608C99.6832 78.0535 92.5246 71.836 85.3886 64.2329C78.2526 56.6298 72.5009 49.0918 68.9688 43.0552C67.2017 40.0351 65.9968 37.4029 65.4482 35.3329C65.174 34.2979 65.0674 33.4162 65.1288 32.7036C65.19 31.993 65.4166 31.4665 65.7934 31.1129Z" fill="#011625" stroke="#011625" stroke-width="0.496396"/>
<mask id="mask0_428_1524" style="mask-type:alpha" maskUnits="userSpaceOnUse" x="39" y="31" width="78" height="84">
<path d="M40.5685 98.8125L65.0772 31.5127L116.761 86.1604L56.733 113.716C47.1172 118.131 36.9479 108.754 40.5685 98.8125Z" fill="#E1DCEB"/>
</mask>
<g mask="url(#mask0_428_1524)">
<path fill-rule="evenodd" clip-rule="evenodd" d="M63.9286 76.2633C53.5737 62.7025 48.3344 46.5355 46.6445 35.6815L54.9828 34.3833C56.5039 44.1534 61.305 58.9226 70.6356 71.1419C79.8784 83.2463 93.4009 92.6854 112.686 92.6854V101.124C90.1795 101.124 74.3713 89.9391 63.9286 76.2633Z" fill="#011625"/>
<path fill-rule="evenodd" clip-rule="evenodd" d="M65.0399 73.6699C54.685 60.1091 49.4457 43.9421 47.7559 33.0881L56.0941 31.7899C57.6152 41.56 62.4163 56.3292 71.7469 68.5485C80.9897 80.6529 94.5122 90.092 113.797 90.092V98.5307C91.2908 98.5307 75.4827 87.3457 65.0399 73.6699Z" fill="white"/>
<path fill-rule="evenodd" clip-rule="evenodd" d="M51.702 93.306C41.3471 79.7452 36.1078 63.5783 34.418 52.7242L42.7563 51.426C44.2773 61.1961 49.0784 75.9653 58.409 88.1846C67.6518 100.289 81.1744 109.728 100.459 109.728V118.167C77.9529 118.167 62.1448 106.982 51.702 93.306Z" fill="white"/>
</g>
<circle cx="87.8919" cy="104.273" r="14.8919" fill="#FE0000"/>
<path fill-rule="evenodd" clip-rule="evenodd" d="M93.9166 99.7542C94.4932 100.341 94.4851 101.284 93.8986 101.86L86.8287 108.81C86.2492 109.379 85.3202 109.379 84.7408 108.81L81.8828 106C81.2962 105.424 81.2881 104.481 81.8647 103.894C82.4412 103.308 83.3841 103.3 83.9706 103.876L85.7847 105.66L91.8107 99.7361C92.3972 99.1596 93.3401 99.1677 93.9166 99.7542Z" fill="white"/>
<path d="M117.013 33.1739C116.863 33.5557 116.43 33.7442 116.049 33.5934L116.048 33.5933C115.666 33.4449 115.476 33.0129 115.627 32.6314C116.63 30.0821 116.909 27.5287 117.336 24.92C117.403 24.5141 117.786 24.2378 118.191 24.3045C118.597 24.3715 118.873 24.7536 118.807 25.1585C118.351 27.9432 118.044 30.5546 117.013 33.1739Z" fill="#011625" stroke="#011625" stroke-width="0.496396"/>
<path d="M122.136 39.1429C121.799 39.3769 121.334 39.2922 121.099 38.9556C120.88 38.6413 120.938 38.2148 121.225 37.9695L121.285 37.9234C125.971 34.6798 130.567 30.3816 134.124 25.8352L134.822 24.9227C135.067 24.5944 135.534 24.5263 135.865 24.7709C136.194 25.0144 136.262 25.4801 136.017 25.8091C132.285 30.8117 127.262 35.5918 122.136 39.1429Z" fill="#011625" stroke="#011625" stroke-width="0.496396"/>
<path d="M135.382 43.3323C131.363 44.4805 126.935 45.0639 122.899 43.8319C122.531 43.7191 122.313 43.345 122.386 42.9778L122.405 42.9045C122.524 42.5146 122.941 42.292 123.335 42.4123C127.14 43.5734 131.277 42.9604 134.97 41.9036C135.366 41.7919 135.779 42.0206 135.892 42.4144L135.91 42.4877C135.976 42.8547 135.753 43.2236 135.381 43.3312L135.382 43.3323Z" fill="#011625" stroke="#011625" stroke-width="0.496396"/>
<circle cx="123.137" cy="51.1586" r="2.97838" fill="#1749B3"/>
<circle cx="98.3163" cy="20.3819" r="2.97838" fill="#1749B3"/>
<path d="M104.048 33.517C103.791 32.4527 102.277 32.4527 102.02 33.517L101.687 34.8955C101.595 35.2759 101.298 35.5728 100.918 35.6646L99.5394 35.9974C98.4751 36.2543 98.4751 37.7681 99.5394 38.0251L100.918 38.3578C101.298 38.4497 101.595 38.7466 101.687 39.1269L102.02 40.5055C102.277 41.5698 103.791 41.5698 104.048 40.5055L104.38 39.1269C104.472 38.7466 104.769 38.4497 105.149 38.3578L106.528 38.0251C107.592 37.7681 107.592 36.2543 106.528 35.9974L105.149 35.6646C104.769 35.5728 104.472 35.2759 104.38 34.8955L104.048 33.517Z" fill="#1749B3"/>
<path fill-rule="evenodd" clip-rule="evenodd" d="M91.3507 10.6082C91.6517 11.3736 91.2752 12.2381 90.5098 12.539C88.325 13.3982 85.5252 16.1654 83.6558 19.6098C82.2328 22.2316 81.5416 24.8795 81.8318 27.0464C82.7061 25.7985 83.7527 24.7749 84.9666 24.1174C87.1426 22.9387 89.6254 23.0638 92.029 24.7018C94.1292 26.133 94.9857 28.1695 94.7588 30.1987C94.542 32.1388 93.3586 33.8926 91.753 34.9945C90.1234 36.1128 87.9596 36.6285 85.7276 35.945C84.4623 35.5575 83.2489 34.8083 82.1383 33.6707C81.0791 37.7949 81.1172 42.9609 82.8681 47.5299C83.1624 48.2979 82.7784 49.159 82.0104 49.4533C81.2424 49.7476 80.3812 49.3636 80.0869 48.5956C77.7778 42.57 78.0778 35.6882 79.9608 30.6761C79.9073 30.5794 79.8542 30.4815 79.8016 30.3822C77.8208 26.6421 79.0068 21.9318 81.0381 18.1891C83.0851 14.4175 86.3311 10.9818 89.4198 9.76726C90.1852 9.46628 91.0497 9.84277 91.3507 10.6082ZM83.305 30.42C84.4296 32.0178 85.5965 32.7899 86.5997 33.0971C87.8629 33.484 89.0946 33.2065 90.0677 32.5387C91.0649 31.8544 91.6914 30.8292 91.7989 29.8678C91.8964 28.9954 91.5915 28.0079 90.3518 27.163C88.7805 26.0922 87.4901 26.1378 86.3852 26.7362C85.2834 27.333 84.1926 28.5819 83.305 30.42Z" fill="#E3E3E3"/>
<path fill-rule="evenodd" clip-rule="evenodd" d="M139.423 68.8509C123.814 63.0491 111.868 70.2634 108.005 74.3438C107.063 75.3393 105.492 75.3823 104.496 74.44C103.501 73.4976 103.458 71.9267 104.4 70.9312C109.306 65.7493 123.27 57.5512 141.153 64.1979C142.438 64.6755 143.092 66.1042 142.615 67.3891C142.137 68.674 140.708 69.3285 139.423 68.8509Z" fill="#CCC6D9"/>
<path fill-rule="evenodd" clip-rule="evenodd" d="M123.543 74.0667C123.892 73.9391 124.258 73.7696 124.541 73.5242C124.877 73.2327 125.013 72.8572 125.105 72.462C125.223 71.9543 125.27 71.4135 125.412 70.905C125.465 70.7161 125.567 70.6447 125.611 70.613C125.721 70.533 125.832 70.5116 125.937 70.5196C126.062 70.5289 126.232 70.5772 126.345 70.7914C126.361 70.822 126.381 70.8687 126.395 70.9327C126.406 70.9796 126.412 71.1263 126.423 71.1868C126.45 71.3357 126.473 71.4847 126.494 71.6344C126.565 72.1329 126.605 72.5563 126.828 73.0142C127.131 73.6359 127.435 74.0163 127.846 74.1847C128.244 74.3477 128.72 74.317 129.328 74.1893C129.386 74.1749 129.443 74.1625 129.5 74.1524C129.768 74.1043 130.024 74.2851 130.077 74.5596C130.13 74.8338 129.959 75.101 129.694 75.1613C129.638 75.1738 129.584 75.1858 129.53 75.1967C128.708 75.4057 127.757 76.1516 127.204 76.8048C127.034 77.0062 126.784 77.5692 126.53 77.9284C126.342 78.1934 126.131 78.368 125.954 78.4298C125.835 78.4713 125.735 78.4649 125.652 78.444C125.532 78.4135 125.433 78.3466 125.356 78.2403C125.314 78.1821 125.276 78.1041 125.257 78.0045C125.249 77.9566 125.248 77.8348 125.248 77.7797C125.196 77.5964 125.132 77.4174 125.086 77.2325C124.976 76.7912 124.76 76.5118 124.502 76.1428C124.262 75.7974 124.004 75.5803 123.625 75.4071C123.576 75.3948 123.179 75.2948 123.038 75.2374C122.833 75.1533 122.736 75.0123 122.7 74.9364C122.64 74.8077 122.634 74.6951 122.646 74.6013C122.663 74.4629 122.724 74.3444 122.831 74.2487C122.898 74.1893 122.997 74.1315 123.13 74.1033C123.233 74.0813 123.505 74.0685 123.543 74.0667ZM125.875 73.3475C125.893 73.3896 125.913 73.432 125.933 73.4748C126.377 74.3853 126.873 74.8937 127.476 75.1403L127.496 75.1483C127.093 75.4561 126.728 75.8001 126.449 76.1298C126.334 76.2656 126.182 76.5476 126.017 76.8369C125.868 76.338 125.624 75.9854 125.317 75.5441C125.082 75.2074 124.836 74.9539 124.534 74.7474C124.769 74.6238 124.992 74.4789 125.187 74.3098C125.511 74.0282 125.726 73.7019 125.875 73.3475Z" fill="#1749B3"/>
<path d="M36.0588 74.2042C36.3947 73.9018 36.9133 73.9309 37.2136 74.2687C37.497 74.5852 37.4899 75.0618 37.2115 75.3689L37.1518 75.428C35.2136 77.1716 34.1154 79.3273 33.7959 81.9163L33.7947 81.9155C33.7408 82.3653 33.3322 82.6846 32.8826 82.628C32.436 82.5712 32.1156 82.1605 32.1723 81.7106C32.5414 78.7227 33.8181 76.2208 36.0588 74.2042Z" fill="#011625" stroke="#011625" stroke-width="0.496396"/>
<path d="M-3.71199 79.0412C0.33498 76.5982 5.37165 77.4887 8.39426 81.1226C8.70671 80.7302 9.04243 80.3563 9.3984 80.0046L9.39936 80.0045C13.4574 75.9992 20.3291 76.0113 26.1926 79.9986C27.1371 80.6412 27.9584 81.6695 28.6673 82.925C29.3774 84.1828 29.9839 85.6846 30.4933 87.292C31.4782 90.3991 32.1295 93.9201 32.559 96.7648C32.8907 95.4087 33.2944 94.0768 33.737 92.7425C35.953 86.0652 38.0505 79.0006 42.5996 73.4041L42.6005 73.403C42.887 73.0531 43.4027 72.9995 43.7521 73.288L43.8136 73.3443C44.1076 73.6393 44.135 74.1153 43.8687 74.4433C39.4785 79.8454 37.4729 86.6828 35.2896 93.2633C34.6061 95.3228 34.0234 97.3613 33.6633 99.4912L33.6634 99.4922C33.5533 100.134 33.44 100.762 33.3646 101.398C33.3645 101.4 33.3648 101.408 33.3665 101.422C33.3687 101.44 33.3722 101.462 33.3785 101.491C33.385 101.52 33.393 101.55 33.4017 101.586C33.4101 101.62 33.419 101.658 33.4266 101.697L33.4271 101.7C33.4636 101.898 33.4889 102.108 33.4728 102.28L33.4731 102.281C33.4412 102.595 33.2966 102.833 33.0904 102.989L33.0886 102.99C32.9371 103.103 32.7388 103.184 32.485 103.179L32.4829 103.179C32.3022 103.173 32.0074 103.12 31.8007 102.787L31.8005 102.786C31.7768 102.748 31.7591 102.701 31.7463 102.664C31.7306 102.619 31.7136 102.563 31.6965 102.496C31.6622 102.363 31.625 102.181 31.5946 101.955C31.3605 100.181 30.7577 94.161 29.2742 88.9243C28.7981 87.2429 28.2425 85.6483 27.5793 84.3215C26.9142 82.9907 26.152 81.9531 25.2767 81.3576C20.0418 77.7979 14.0378 77.7321 10.5464 81.177C10.103 81.6146 9.69853 82.0895 9.33748 82.596C9.47476 82.9729 9.60149 83.4566 9.67526 83.9581C9.75755 84.5176 9.78069 85.1189 9.67849 85.6262C9.57116 86.1579 9.32697 86.6109 8.93907 86.8895C8.53237 87.1822 7.9808 87.294 7.27511 87.0662C6.67179 86.8709 6.38472 86.3584 6.34214 85.7672C6.30153 85.2258 6.48706 84.5831 6.59649 84.2861C6.82026 83.6776 7.10099 83.0938 7.42504 82.5376C4.95972 79.2315 0.6131 78.3537 -2.86197 80.4455L-3.19938 80.66C-3.57703 80.9121 -4.08335 80.8074 -4.33493 80.4322L-4.33621 80.4304C-4.58442 80.0545 -4.48625 79.5449 -4.10869 79.293L-3.71199 79.0412ZM8.11615 84.8973C8.06018 85.0575 7.98489 85.3125 7.97185 85.5436C7.97178 85.5453 7.97281 85.5475 7.97278 85.5494L7.97583 85.5499C7.98144 85.5501 7.98556 85.549 7.98852 85.5489C7.99564 85.5421 8.00934 85.5276 8.02384 85.4918C8.04273 85.445 8.05763 85.3837 8.07487 85.2986L8.07471 85.2976C8.09966 85.175 8.11174 85.0398 8.11615 84.8973Z" fill="#011625" stroke="#011625" stroke-width="0.496396"/>
</g>
<defs>
<linearGradient id="paint0_linear_428_1524" x1="75.2813" y1="-1.09254" x2="76.4761" y2="203.742" gradientUnits="userSpaceOnUse">
<stop stop-color="#E9E6E6"/>
<stop offset="0.276042" stop-color="#F7F7F7"/>
</linearGradient>
<clipPath id="clip0_428_1524">
<rect width="145" height="145" fill="white"/>
</clipPath>
</defs>
</svg>
